<svg width="30" height="30" viewBox="0 0 30 30" fill="none" xmlns="http://www.w3.org/2000/svg">
<rect width="30" height="30" rx="15" fill="#EF4D3C"/>
<path d="M13.0625 9.35156V9.54688H16.1875V9.35156C16.1875 8.93716 16.0229 8.53973 15.7299 8.24671C15.4368 7.95368 15.0394 7.78906 14.625 7.78906C14.2106 7.78906 13.8132 7.95368 13.5201 8.24671C13.2271 8.53973 13.0625 8.93716 13.0625 9.35156ZM12.0859 9.54688V9.35156C12.0859 8.67816 12.3534 8.03234 12.8296 7.55617C13.3058 7.08001 13.9516 6.8125 14.625 6.8125C15.2984 6.8125 15.9442 7.08001 16.4204 7.55617C16.8966 8.03234 17.1641 8.67816 17.1641 9.35156V9.54688H21.5586C21.6881 9.54688 21.8123 9.59832 21.9039 9.68989C21.9954 9.78146 22.0469 9.90566 22.0469 10.0352C22.0469 10.1647 21.9954 10.2889 21.9039 10.3804C21.8123 10.472 21.6881 10.5234 21.5586 10.5234H20.4191L19.6379 19.8422C19.5785 20.5498 19.2555 21.2094 18.7327 21.6901C18.21 22.1708 17.5258 22.4375 16.8156 22.4375H12.4344C11.7243 22.4374 11.0401 22.1706 10.5175 21.6899C9.99486 21.2093 9.67185 20.5498 9.6125 19.8422L8.83125 10.5234H7.69141C7.56191 10.5234 7.43771 10.472 7.34614 10.3804C7.25457 10.2889 7.20312 10.1647 7.20312 10.0352C7.20312 9.90566 7.25457 9.78146 7.34614 9.68989C7.43771 9.59832 7.56191 9.54688 7.69141 9.54688H12.0859ZM10.5855 19.7605C10.6244 20.2241 10.8361 20.6562 11.1785 20.9712C11.5209 21.2861 11.9691 21.4609 12.4344 21.4609H16.8156C17.2809 21.461 17.7293 21.2862 18.0718 20.9713C18.4143 20.6563 18.626 20.2242 18.6648 19.7605L19.4391 10.5234H9.81094L10.5855 19.7605ZM13.6484 13.1602C13.6484 13.096 13.6358 13.0325 13.6113 12.9733C13.5867 12.9141 13.5508 12.8602 13.5054 12.8149C13.4601 12.7695 13.4063 12.7336 13.347 12.709C13.2878 12.6845 13.2243 12.6719 13.1602 12.6719C13.096 12.6719 13.0325 12.6845 12.9733 12.709C12.9141 12.7336 12.8602 12.7695 12.8149 12.8149C12.7695 12.8602 12.7336 12.9141 12.709 12.9733C12.6845 13.0325 12.6719 13.096 12.6719 13.1602V18.8242C12.6719 18.8883 12.6845 18.9518 12.709 19.0111C12.7336 19.0703 12.7695 19.1241 12.8149 19.1695C12.8602 19.2148 12.9141 19.2508 12.9733 19.2753C13.0325 19.2999 13.096 19.3125 13.1602 19.3125C13.2243 19.3125 13.2878 19.2999 13.347 19.2753C13.4063 19.2508 13.4601 19.2148 13.5054 19.1695C13.5508 19.1241 13.5867 19.0703 13.6113 19.0111C13.6358 18.9518 13.6484 18.8883 13.6484 18.8242V13.1602ZM16.0898 12.6719C16.3594 12.6719 16.5781 12.8906 16.5781 13.1602V18.8242C16.5781 18.9537 16.5267 19.0779 16.4351 19.1695C16.3435 19.2611 16.2193 19.3125 16.0898 19.3125C15.9603 19.3125 15.8361 19.2611 15.7446 19.1695C15.653 19.0779 15.6016 18.9537 15.6016 18.8242V13.1602C15.6016 12.8906 15.8203 12.6719 16.0898 12.6719Z" fill="white"/>
</svg>
