<svg width="30" height="30" viewBox="0 0 30 30" fill="none" xmlns="http://www.w3.org/2000/svg">
<rect width="30" height="30" rx="15" fill="#76517B"/>
<path d="M14.25 7.50006C15.0604 7.49913 15.8643 7.64446 16.623 7.92906L15.7358 8.82306C14.5415 8.49626 13.2728 8.5726 12.1264 9.04026C10.98 9.50792 10.0199 10.3408 9.39502 11.4096C8.77014 12.4785 8.51537 13.7237 8.67023 14.9521C8.82508 16.1805 9.38091 17.3235 10.2515 18.2039C11.1221 19.0842 12.2589 19.6527 13.4855 19.8212C14.7121 19.9897 15.9601 19.7488 17.0358 19.1359C18.1116 18.5229 18.955 17.5721 19.4354 16.431C19.9158 15.2899 20.0063 14.0221 19.6928 12.8243L20.5883 11.9221C20.8614 12.6678 21.0008 13.4559 21 14.2501C21 15.5851 20.6041 16.8901 19.8624 18.0002C19.1207 19.1102 18.0665 19.9754 16.8331 20.4862C15.5997 20.9971 14.2425 21.1308 12.9331 20.8704C11.6238 20.6099 10.421 19.967 9.47703 19.023C8.53303 18.079 7.89015 16.8763 7.6297 15.5669C7.36925 14.2575 7.50292 12.9003 8.01382 11.6669C8.52471 10.4335 9.38987 9.37934 10.4999 8.63764C11.6099 7.89594 12.915 7.50006 14.25 7.50006ZM21.045 7.25406L21.1545 7.35606C21.5422 7.74365 21.7605 8.26909 21.7617 8.81732C21.7628 9.36554 21.5466 9.89187 21.1605 10.2811L16.4325 15.0466C16.2969 15.183 16.1285 15.2825 15.9435 15.3353L12.7845 16.2421C12.7201 16.2605 12.652 16.2613 12.5872 16.2445C12.5224 16.2277 12.4633 16.1938 12.416 16.1465C12.3687 16.0991 12.3349 16.0399 12.3182 15.9751C12.3015 15.9103 12.3025 15.8421 12.321 15.7778L13.2285 12.6128C13.2808 12.4311 13.378 12.2655 13.5113 12.1313L18.243 7.36131C18.6097 6.99193 19.1028 6.77544 19.6229 6.75553C20.1429 6.73563 20.6512 6.91379 21.045 7.25406ZM19.0418 8.15406L14.3093 12.9241L13.7753 14.7871L15.6338 14.2546L20.3618 9.48831C20.5256 9.32306 20.6229 9.10328 20.6351 8.87089C20.6472 8.6385 20.5734 8.40977 20.4278 8.22831L20.3565 8.14806C20.1814 7.97449 19.9446 7.87754 19.698 7.87852C19.4515 7.87951 19.2154 7.97834 19.0418 8.15331V8.15406Z" fill="white"/>
</svg>
